<?xml version="1.0" encoding="utf-8" ?><!DOCTYPE svg><svg xmlns="http://www.w3.org/2000/svg" xmlns:xlink="http://www.w3.org/1999/xlink" width="750px" height="522px" xmlns:ev="http://www.w3.org/2001/xml-events" style="overflow: hidden; "><g id="viewport-20211004110857990" class="svg-pan-zoom_viewport" transform="matrix(1.5941893187828584,0,0,1.5941893187828584,243.3108191917232,21.78030464165224)" style="transform: matrix(1.59419, 0, 0, 1.59419, 243.311, 21.7803);">
<g id="graph0" class="graph" transform="scale(1 1) rotate(0) translate(4 271)">
<title>system</title>
<polygon fill="#ffffff" stroke="transparent" points="-4,4 -4,-271 145.5435,-271 145.5435,4 -4,4"></polygon>
<!-- Person -->
<g id="node1" class="node">
<title>Person</title>
<polygon fill="none" stroke="#000000" points="0,-.5 0,-72.5 140.196,-72.5 140.196,-.5 0,-.5"></polygon>
<text text-anchor="middle" x="70.098" y="-59.5" font-family="Helvetica,sans-Serif" font-size="10.00" fill="#000000">Person</text>
<polyline fill="none" stroke="#000000" points="0,-52.5 140.196,-52.5 "></polyline>
<text text-anchor="start" x="8" y="-39.5" font-family="Helvetica,sans-Serif" font-size="10.00" fill="#000000">+ name : any</text>
<polyline fill="none" stroke="#000000" points="0,-32.5 140.196,-32.5 "></polyline>
<text text-anchor="start" x="8" y="-19.5" font-family="Helvetica,sans-Serif" font-size="10.00" fill="#000000">+ Person(param : any) : any</text>
<text text-anchor="start" x="8" y="-7.5" font-family="Helvetica,sans-Serif" font-size="10.00" fill="#000000">+ show(param : any) : any</text>
</g>
<!-- Finery -->
<g id="node2" class="node">
<title>Finery</title>
<polygon fill="none" stroke="#000000" points="29.724,-109.5 29.724,-169.5 110.472,-169.5 110.472,-109.5 29.724,-109.5"></polygon>
<text text-anchor="middle" x="70.098" y="-156.5" font-family="Helvetica,sans-Serif" font-size="10.00" fill="#000000">Finery</text>
<polyline fill="none" stroke="#000000" points="29.724,-149.5 110.472,-149.5 "></polyline>
<text text-anchor="start" x="37.724" y="-136.5" font-family="Helvetica,sans-Serif" font-size="10.00" fill="#000000">+ Person : any</text>
<polyline fill="none" stroke="#000000" points="29.724,-129.5 110.472,-129.5 "></polyline>
<text text-anchor="middle" x="70.098" y="-116.5" font-family="Helvetica,sans-Serif" font-size="10.00" fill="#000000"> </text>
</g>
<!-- Finery&#45;&gt;Person -->
<g id="edge1" class="edge">
<title>Finery-&gt;Person</title>
<path fill="none" stroke="#000000" d="M70.098,-109.4312C70.098,-101.0616 70.098,-91.7729 70.098,-82.7054"></path>
<polygon fill="none" stroke="#000000" points="73.5981,-82.6227 70.098,-72.6227 66.5981,-82.6228 73.5981,-82.6227"></polygon>
</g>
<!-- TShirts -->
<g id="node3" class="node">
<title>TShirts</title>
<polygon fill="none" stroke="#000000" points="5.098,-206.5 5.098,-266.5 59.098,-266.5 59.098,-206.5 5.098,-206.5"></polygon>
<text text-anchor="middle" x="31.93" y="-253.5" font-family="Helvetica,sans-Serif" font-size="10.00" fill="#000000">TShirts</text>
<polyline fill="none" stroke="#000000" points="5.098,-246.5 58.762,-246.5 "></polyline>
<text text-anchor="middle" x="31.93" y="-233.5" font-family="Helvetica,sans-Serif" font-size="10.00" fill="#000000"> </text>
<polyline fill="none" stroke="#000000" points="5.098,-226.5 58.762,-226.5 "></polyline>
<text text-anchor="middle" x="31.93" y="-213.5" font-family="Helvetica,sans-Serif" font-size="10.00" fill="#000000"> </text>
</g>
<!-- TShirts&#45;&gt;Finery -->
<g id="edge2" class="edge">
<title>TShirts-&gt;Finery</title>
<path fill="none" stroke="#000000" d="M43.9131,-206.3403C47.2731,-197.7635 50.9846,-188.2894 54.5311,-179.2365"></path>
<polygon fill="none" stroke="#000000" points="57.9014,-180.2287 58.2902,-169.641 51.3836,-177.6754 57.9014,-180.2287"></polygon>
</g>
<!-- BigTrouser -->
<g id="node4" class="node">
<title>BigTrouser</title>
<polygon fill="none" stroke="#000000" points="76.6525,-206.5 76.6525,-266.5 141.5435,-266.5 141.5435,-206.5 76.6525,-206.5"></polygon>
<text text-anchor="middle" x="109.098" y="-253.5" font-family="Helvetica,sans-Serif" font-size="10.00" fill="#000000">BigTrouser</text>
<polyline fill="none" stroke="#000000" points="76.6525,-246.5 141.5435,-246.5 "></polyline>
<text text-anchor="middle" x="109.098" y="-233.5" font-family="Helvetica,sans-Serif" font-size="10.00" fill="#000000"> </text>
<polyline fill="none" stroke="#000000" points="76.6525,-226.5 141.5435,-226.5 "></polyline>
<text text-anchor="middle" x="109.098" y="-213.5" font-family="Helvetica,sans-Serif" font-size="10.00" fill="#000000"> </text>
</g>
<!-- BigTrouser&#45;&gt;Finery -->
<g id="edge3" class="edge">
<title>BigTrouser-&gt;Finery</title>
<path fill="none" stroke="#000000" d="M96.9719,-206.3403C93.4869,-197.6723 89.6332,-188.0877 85.9584,-178.9478"></path>
<polygon fill="none" stroke="#000000" points="89.1944,-177.6135 82.2166,-169.641 82.6997,-180.2249 89.1944,-177.6135"></polygon>
</g>
</g>
</g></svg>